<svg width="134" height="23" viewBox="0 0 134 23" fill="none" xmlns="http://www.w3.org/2000/svg">
<path d="M10.243 20.9494L3.04884 12.5656V20.9494H0V2.21383H3.04884V10.7594L10.2698 2.21383H14.0942L6.01746 11.5951L14.2279 20.9494H10.243ZM30.2695 6.09573V20.9494H27.2206V19.1971C26.7392 19.8082 26.1063 20.2934 25.3218 20.6529C24.5551 20.9943 23.735 21.165 22.8613 21.165C21.7024 21.165 20.6594 20.9224 19.7322 20.4372C18.8229 19.952 18.1008 19.2331 17.566 18.2806C17.0489 17.3281 16.7904 16.1779 16.7904 14.83V6.09573H19.8125V14.3717C19.8125 15.7016 20.1423 16.726 20.802 17.4449C21.4617 18.1458 22.3621 18.4962 23.5032 18.4962C24.6443 18.4962 25.5446 18.1458 26.2044 17.4449C26.8819 16.726 27.2206 15.7016 27.2206 14.3717V6.09573H30.2695ZM37.341 1.00073V20.9494H34.2922V1.00073H37.341ZM44.393 6.09573V20.9494H41.3439V6.09573H44.393ZM68.1866 6.09573L63.6133 20.9494H60.404L57.4354 9.97762L54.4668 20.9494H51.2575L46.6574 6.09573H49.7598L52.8354 18.038L55.9644 6.09573H59.147L62.1424 17.984L65.1912 6.09573H68.1866ZM73.5137 6.09573V20.9494H70.4648V6.09573H73.5137ZM82.8654 21.192C81.7066 21.192 80.6636 20.9853 79.7363 20.572C78.827 20.1407 78.1049 19.5656 77.57 18.8467C77.0351 18.1099 76.7497 17.2921 76.7142 16.3935H79.87C79.9235 17.0225 80.2177 17.5527 80.7526 17.984C81.3055 18.3974 81.9916 18.6041 82.8119 18.6041C83.6677 18.6041 84.3276 18.4423 84.791 18.1188C85.2724 17.7774 85.5131 17.346 85.5131 16.8249C85.5131 16.2677 85.2456 15.8544 84.7108 15.5848C84.1938 15.3152 83.3648 15.0187 82.2235 14.6952C81.1182 14.3897 80.2177 14.0932 79.5224 13.8056C78.827 13.518 78.2207 13.0778 77.7038 12.4847C77.2044 11.8916 76.9549 11.1098 76.9549 10.1394C76.9549 9.34863 77.1868 8.62974 77.6503 7.98276C78.1137 7.31779 78.7735 6.79662 79.6293 6.41922C80.5031 6.04181 81.5014 5.85311 82.6247 5.85311C84.3008 5.85311 85.6468 6.28443 86.6631 7.14707C87.6973 7.99173 88.2498 9.15091 88.3212 10.6246H85.2724C85.2189 9.95964 84.9515 9.4295 84.4701 9.03411C83.9887 8.63872 83.338 8.44104 82.5177 8.44104C81.7154 8.44104 81.1003 8.59381 80.6724 8.89932C80.2445 9.20483 80.0305 9.60919 80.0305 10.1124C80.0305 10.5078 80.173 10.8403 80.4584 11.1098C80.7438 11.3794 81.0915 11.5951 81.5014 11.7568C81.9114 11.9006 82.5177 12.0893 83.3201 12.3229C84.3898 12.6105 85.2636 12.907 85.941 13.2125C86.6363 13.5001 87.2335 13.9314 87.7328 14.5065C88.2322 15.0816 88.4905 15.8454 88.5084 16.7979C88.5084 17.6426 88.2765 18.3974 87.8131 19.0624C87.3497 19.7273 86.6898 20.2485 85.834 20.6259C84.9962 21.0033 84.0066 21.192 82.8654 21.192ZM90.7867 13.4552C90.7867 11.9635 91.0897 10.6426 91.696 9.49239C92.3199 8.34218 93.1578 7.45258 94.21 6.82358C95.2797 6.1766 96.4565 5.85311 97.7402 5.85311C98.899 5.85311 99.9065 6.08675 100.762 6.55401C101.636 7.00331 102.331 7.56942 102.848 8.25234V6.09573H105.924V20.9494H102.848V18.7389C102.331 19.4398 101.627 20.0239 100.736 20.4911C99.8438 20.9584 98.8275 21.192 97.6867 21.192C96.4205 21.192 95.2618 20.8685 94.21 20.2215C93.1578 19.5566 92.3199 18.64 91.696 17.4719C91.0897 16.2857 90.7867 14.9468 90.7867 13.4552ZM102.848 13.5091C102.848 12.4847 102.634 11.5951 102.207 10.8403C101.796 10.0855 101.252 9.51037 100.575 9.11498C99.8973 8.71959 99.1664 8.52191 98.3821 8.52191C97.5973 8.52191 96.8664 8.71959 96.189 9.11498C95.5112 9.49239 94.9588 10.0585 94.5309 10.8133C94.1206 11.5501 93.9158 12.4308 93.9158 13.4552C93.9158 14.4795 94.1206 15.3781 94.5309 16.1509C94.9588 16.9237 95.5112 17.5168 96.189 17.9301C96.8844 18.3255 97.6153 18.5232 98.3821 18.5232C99.1664 18.5232 99.8973 18.3255 100.575 17.9301C101.252 17.5347 101.796 16.9597 102.207 16.2048C102.634 15.432 102.848 14.5335 102.848 13.5091ZM113.485 8.60279V16.8249C113.485 17.382 113.61 17.7864 113.86 18.038C114.127 18.2716 114.573 18.3884 115.197 18.3884H117.069V20.9494H114.662C113.289 20.9494 112.237 20.6259 111.506 19.9789C110.775 19.3319 110.41 18.2806 110.41 16.8249V8.60279H108.672V6.09573H110.41V2.40253H113.485V6.09573H117.069V8.60279H113.485ZM118.863 13.4552C118.863 11.9635 119.166 10.6426 119.772 9.49239C120.396 8.34218 121.234 7.45258 122.286 6.82358C123.356 6.1766 124.533 5.85311 125.816 5.85311C126.975 5.85311 127.983 6.08675 128.838 6.55401C129.712 7.00331 130.407 7.56942 130.924 8.25234V6.09573H134V20.9494H130.924V18.7389C130.407 19.4398 129.703 20.0239 128.812 20.4911C127.92 20.9584 126.904 21.192 125.763 21.192C124.497 21.192 123.338 20.8685 122.286 20.2215C121.234 19.5566 120.396 18.64 119.772 17.4719C119.166 16.2857 118.863 14.9468 118.863 13.4552ZM130.924 13.5091C130.924 12.4847 130.71 11.5951 130.283 10.8403C129.873 10.0855 129.329 9.51037 128.651 9.11498C127.974 8.71959 127.242 8.52191 126.458 8.52191C125.674 8.52191 124.942 8.71959 124.265 9.11498C123.588 9.49239 123.035 10.0585 122.607 10.8133C122.197 11.5501 121.992 12.4308 121.992 13.4552C121.992 14.4795 122.197 15.3781 122.607 16.1509C123.035 16.9237 123.588 17.5168 124.265 17.9301C124.96 18.3255 125.691 18.5232 126.458 18.5232C127.242 18.5232 127.974 18.3255 128.651 17.9301C129.329 17.5347 129.873 16.9597 130.283 16.2048C130.71 15.432 130.924 14.5335 130.924 13.5091Z" fill="white"/>
<path d="M41.9055 3.56849C42.2802 3.85616 42.7436 4 43.2964 4H71.5881C72.123 4 72.5776 3.85616 72.952 3.56849C73.3265 3.28082 73.5137 2.92466 73.5137 2.5C73.5137 2.07534 73.3265 1.71918 72.952 1.43151C72.5776 1.14384 72.123 1 71.5881 1H43.2964C42.7436 1 42.2802 1.14384 41.9055 1.43151C41.5311 1.71918 41.3439 2.07534 41.3439 2.5C41.3439 2.92466 41.5311 3.28082 41.9055 3.56849Z" fill="white"/>
</svg>
