<svg width="134" height="23" viewBox="0 0 134 23" fill="none" xmlns="http://www.w3.org/2000/svg">
<path d="M10.243 21.3534L3.04884 12.9696V21.3534H0V2.61788H3.04884V11.1634L10.2698 2.61788H14.0942L6.01746 11.9991L14.2279 21.3534H10.243ZM30.2695 6.49978V21.3534H27.2206V19.6012C26.7392 20.2122 26.1063 20.6975 25.3218 21.0569C24.5551 21.3984 23.735 21.5691 22.8613 21.5691C21.7024 21.5691 20.6594 21.3265 19.7322 20.8412C18.8229 20.356 18.1008 19.6371 17.566 18.6846C17.0489 17.7321 16.7904 16.5819 16.7904 15.2341V6.49978H19.8125V14.7758C19.8125 16.1057 20.1423 17.1301 20.802 17.8489C21.4617 18.5498 22.3621 18.9003 23.5032 18.9003C24.6443 18.9003 25.5446 18.5498 26.2044 17.8489C26.8819 17.1301 27.2206 16.1057 27.2206 14.7758V6.49978H30.2695ZM37.341 1.40479V21.3534H34.2922V1.40479H37.341ZM44.393 6.49978V21.3534H41.3439V6.49978H44.393ZM68.1866 6.49978L63.6133 21.3534H60.404L57.4354 10.3817L54.4668 21.3534H51.2575L46.6574 6.49978H49.7598L52.8354 18.442L55.9644 6.49978H59.147L62.1424 18.3881L65.1912 6.49978H68.1866ZM73.5137 6.49978V21.3534H70.4648V6.49978H73.5137ZM82.8654 21.5961C81.7066 21.5961 80.6636 21.3894 79.7363 20.976C78.827 20.5447 78.1049 19.9696 77.57 19.2507C77.0351 18.5139 76.7497 17.6962 76.7142 16.7976H79.87C79.9235 17.4266 80.2177 17.9568 80.7526 18.3881C81.3055 18.8014 81.9916 19.0081 82.8119 19.0081C83.6677 19.0081 84.3275 18.8464 84.791 18.5229C85.2724 18.1814 85.5131 17.7501 85.5131 17.2289C85.5131 16.6718 85.2456 16.2584 84.7108 15.9889C84.1938 15.7193 83.3648 15.4228 82.2235 15.0993C81.1182 14.7938 80.2177 14.4972 79.5224 14.2097C78.827 13.9221 78.2207 13.4818 77.7038 12.8887C77.2044 12.2957 76.9549 11.5139 76.9549 10.5434C76.9549 9.75268 77.1868 9.0338 77.6503 8.38681C78.1137 7.72184 78.7735 7.20068 79.6293 6.82327C80.5031 6.44586 81.5014 6.25716 82.6247 6.25716C84.3008 6.25716 85.6468 6.68848 86.6631 7.55113C87.6973 8.39579 88.2498 9.55496 88.3212 11.0287H85.2724C85.2189 10.3637 84.9515 9.83355 84.4701 9.43816C83.9887 9.04277 83.338 8.84509 82.5177 8.84509C81.7154 8.84509 81.1003 8.99787 80.6724 9.30337C80.2445 9.60888 80.0305 10.0132 80.0305 10.5165C80.0305 10.9119 80.173 11.2443 80.4584 11.5139C80.7438 11.7835 81.0915 11.9991 81.5014 12.1609C81.9114 12.3046 82.5177 12.4933 83.3201 12.727C84.3898 13.0146 85.2636 13.3111 85.941 13.6166C86.6363 13.9042 87.2335 14.3355 87.7328 14.9106C88.2322 15.4856 88.4905 16.2495 88.5084 17.202C88.5084 18.0466 88.2765 18.8014 87.8131 19.4664C87.3497 20.1314 86.6898 20.6525 85.834 21.0299C84.9962 21.4074 84.0066 21.5961 82.8654 21.5961ZM90.7867 13.8592C90.7867 12.3676 91.0897 11.0466 91.696 9.89644C92.3199 8.74623 93.1578 7.85663 94.21 7.22763C95.2797 6.58065 96.4565 6.25716 97.7402 6.25716C98.899 6.25716 99.9065 6.49081 100.762 6.95806C101.636 7.40737 102.331 7.97348 102.848 8.65639V6.49978H105.924V21.3534H102.848V19.1429C102.331 19.8438 101.627 20.4279 100.736 20.8952C99.8438 21.3624 98.8275 21.5961 97.6867 21.5961C96.4205 21.5961 95.2618 21.2726 94.21 20.6256C93.1578 19.9606 92.3199 19.0441 91.696 17.8759C91.0897 16.6898 90.7867 15.3509 90.7867 13.8592ZM102.848 13.9131C102.848 12.8887 102.634 11.9991 102.207 11.2443C101.796 10.4895 101.252 9.91443 100.575 9.51903C99.8973 9.12364 99.1664 8.92597 98.3821 8.92597C97.5973 8.92597 96.8664 9.12364 96.189 9.51903C95.5112 9.89644 94.9588 10.4626 94.5309 11.2174C94.1205 11.9542 93.9158 12.8348 93.9158 13.8592C93.9158 14.8836 94.1205 15.7822 94.5309 16.555C94.9588 17.3278 95.5112 17.9209 96.189 18.3342C96.8844 18.7296 97.6153 18.9273 98.3821 18.9273C99.1664 18.9273 99.8973 18.7296 100.575 18.3342C101.252 17.9388 101.796 17.3637 102.207 16.6089C102.634 15.8361 102.848 14.9375 102.848 13.9131ZM113.485 9.00684V17.2289C113.485 17.7861 113.61 18.1904 113.86 18.442C114.127 18.6757 114.573 18.7925 115.197 18.7925H117.069V21.3534H114.662C113.289 21.3534 112.237 21.0299 111.506 20.383C110.775 19.736 110.41 18.6846 110.41 17.2289V9.00684H108.672V6.49978H110.41V2.80658H113.485V6.49978H117.069V9.00684H113.485ZM118.863 13.8592C118.863 12.3676 119.166 11.0466 119.772 9.89644C120.396 8.74623 121.234 7.85663 122.286 7.22763C123.356 6.58065 124.533 6.25716 125.816 6.25716C126.975 6.25716 127.983 6.49081 128.838 6.95806C129.712 7.40737 130.407 7.97348 130.924 8.65639V6.49978H134V21.3534H130.924V19.1429C130.407 19.8438 129.703 20.4279 128.812 20.8952C127.92 21.3624 126.904 21.5961 125.763 21.5961C124.497 21.5961 123.338 21.2726 122.286 20.6256C121.234 19.9606 120.396 19.0441 119.772 17.8759C119.166 16.6898 118.863 15.3509 118.863 13.8592ZM130.924 13.9131C130.924 12.8887 130.71 11.9991 130.283 11.2443C129.873 10.4895 129.329 9.91443 128.651 9.51903C127.974 9.12364 127.242 8.92597 126.458 8.92597C125.674 8.92597 124.942 9.12364 124.265 9.51903C123.588 9.89644 123.035 10.4626 122.607 11.2174C122.197 11.9542 121.992 12.8348 121.992 13.8592C121.992 14.8836 122.197 15.7822 122.607 16.555C123.035 17.3278 123.588 17.9209 124.265 18.3342C124.96 18.7296 125.691 18.9273 126.458 18.9273C127.242 18.9273 127.974 18.7296 128.651 18.3342C129.329 17.9388 129.873 17.3637 130.283 16.6089C130.71 15.8361 130.924 14.9375 130.924 13.9131Z" fill="#4C788D"/>
<path d="M41.9055 3.97255C42.2802 4.26022 42.7436 4.40405 43.2964 4.40405H71.5881C72.123 4.40405 72.5776 4.26022 72.952 3.97255C73.3265 3.68488 73.5137 3.32871 73.5137 2.90405C73.5137 2.47939 73.3265 2.12323 72.952 1.83556C72.5776 1.54789 72.123 1.40405 71.5881 1.40405H43.2964C42.7436 1.40405 42.2802 1.54789 41.9055 1.83556C41.5311 2.12323 41.3439 2.47939 41.3439 2.90405C41.3439 3.32871 41.5311 3.68488 41.9055 3.97255Z" fill="#4C788D"/>
</svg>
