<svg width="25" height="24" viewBox="0 0 25 24" fill="none" xmlns="http://www.w3.org/2000/svg">
<path d="M3.25 5C3.25 3.89543 4.14543 3 5.25 3H8.52924C8.95967 3 9.34181 3.27543 9.47792 3.68377L10.9757 8.17721C11.1331 8.64932 10.9194 9.16531 10.4743 9.38787L8.21701 10.5165C9.31925 12.9612 11.2888 14.9308 13.7335 16.033L14.8621 13.7757C15.0847 13.3306 15.6007 13.1169 16.0728 13.2743L20.5662 14.7721C20.9746 14.9082 21.25 15.2903 21.25 15.7208V19C21.25 20.1046 20.3546 21 19.25 21H18.25C9.96573 21 3.25 14.2843 3.25 6V5Z" stroke="#E6E9EC" stroke-width="2" stroke-linecap="round" stroke-linejoin="round"/>
</svg>
