<svg width="16" height="18" viewBox="0 0 16 18" fill="none" xmlns="http://www.w3.org/2000/svg">
<g clip-path="url(#clip0_901_1344)">
<path d="M8.0038 4.95708C5.73238 4.95708 3.90023 6.76059 3.90023 8.99653C3.90023 11.2325 5.73238 13.036 8.0038 13.036C10.2752 13.036 12.1074 11.2325 12.1074 8.99653C12.1074 6.76059 10.2752 4.95708 8.0038 4.95708ZM8.0038 11.6227C6.53595 11.6227 5.33595 10.445 5.33595 8.99653C5.33595 7.54809 6.53238 6.37036 8.0038 6.37036C9.47523 6.37036 10.6717 7.54809 10.6717 8.99653C10.6717 10.445 9.47166 11.6227 8.0038 11.6227ZM13.2324 4.79184C13.2324 5.31567 12.8038 5.73403 12.2752 5.73403C11.7431 5.73403 11.3181 5.31216 11.3181 4.79184C11.3181 4.27153 11.7467 3.84966 12.2752 3.84966C12.8038 3.84966 13.2324 4.27153 13.2324 4.79184ZM15.9502 5.74809C15.8895 4.48598 15.5967 3.36802 14.6574 2.44692C13.7217 1.52583 12.5859 1.23755 11.3038 1.17427C9.98237 1.10044 6.02166 1.10044 4.70023 1.17427C3.42166 1.23403 2.28595 1.52231 1.34666 2.44341C0.40738 3.3645 0.118094 4.48247 0.0538086 5.74458C-0.0211914 7.04536 -0.0211914 10.9442 0.0538086 12.245C0.114523 13.5071 0.40738 14.625 1.34666 15.5461C2.28595 16.4672 3.41809 16.7555 4.70023 16.8188C6.02166 16.8926 9.98237 16.8926 11.3038 16.8188C12.5859 16.759 13.7217 16.4707 14.6574 15.5461C15.5931 14.625 15.8859 13.5071 15.9502 12.245C16.0252 10.9442 16.0252 7.04887 15.9502 5.74809ZM14.2431 13.6407C13.9645 14.3297 13.4252 14.8606 12.7217 15.1383C11.6681 15.5497 9.16809 15.4547 8.0038 15.4547C6.83952 15.4547 4.33595 15.5461 3.28595 15.1383C2.58595 14.8641 2.04666 14.3332 1.76452 13.6407C1.34666 12.6036 1.44309 10.1426 1.44309 8.99653C1.44309 7.85044 1.35024 5.38598 1.76452 4.35239C2.04309 3.66333 2.58238 3.13247 3.28595 2.85474C4.33952 2.44341 6.83952 2.53833 8.0038 2.53833C9.16809 2.53833 11.6717 2.44692 12.7217 2.85474C13.4217 3.12895 13.9609 3.65981 14.2431 4.35239C14.6609 5.3895 14.5645 7.85044 14.5645 8.99653C14.5645 10.1426 14.6609 12.6071 14.2431 13.6407Z" fill="#E6E9EC"/>
</g>
<defs>
<clipPath id="clip0_901_1344">
<rect width="16" height="18" fill="white"/>
</clipPath>
</defs>
</svg>
