<svg width="19" height="21" viewBox="0 0 19 21" fill="none" xmlns="http://www.w3.org/2000/svg">
<path d="M14.9069 14.6569C13.9702 15.5935 12.0116 17.5521 10.6638 18.8999C9.88275 19.681 8.61768 19.6814 7.83663 18.9003C6.51234 17.576 4.59159 15.6553 3.59315 14.6569C0.468951 11.5327 0.468951 6.46734 3.59315 3.34315C6.71734 0.218951 11.7827 0.218951 14.9069 3.34315C18.031 6.46734 18.031 11.5327 14.9069 14.6569Z" stroke="#E6E9EC" stroke-width="2" stroke-linecap="round" stroke-linejoin="round"/>
<path d="M12.25 9C12.25 10.6569 10.9069 12 9.25 12C7.59315 12 6.25 10.6569 6.25 9C6.25 7.34315 7.59315 6 9.25 6C10.9069 6 12.25 7.34315 12.25 9Z" stroke="#E6E9EC" stroke-width="2" stroke-linecap="round" stroke-linejoin="round"/>
</svg>
