<svg width="34" height="20" viewBox="0 0 34 20" fill="none" xmlns="http://www.w3.org/2000/svg">
<path d="M1.47667 2.64161C1.8513 2.92929 2.31472 3.07312 2.86758 3.07312H31.1592C31.6941 3.07312 32.1488 2.92929 32.5232 2.64161C32.8976 2.35394 33.0848 1.99778 33.0848 1.57312C33.0848 1.14846 32.8976 0.792298 32.5232 0.504627C32.1488 0.216956 31.6941 0.0731201 31.1592 0.0731201H2.86758C2.31472 0.0731201 1.8513 0.216956 1.47667 0.504627C1.10225 0.792298 0.915039 1.14846 0.915039 1.57312C0.915039 1.99778 1.10225 2.35394 1.47667 2.64161Z" fill="#4C788D"/>
<path d="M23.1912 19.9268L27.7645 5.07312H24.7691L21.7203 16.9614L18.7249 5.07312H15.5424L12.4133 17.0154L9.33768 5.07312H6.23535L10.8354 19.9268H14.0447L17.0133 8.95502L19.9819 19.9268H23.1912Z" fill="#4C788D"/>
</svg>
